<?xml version="1.0" encoding="UTF-8" standalone="no"?>
<svg
   xmlns:dc="http://purl.org/dc/elements/1.1/"
   xmlns:cc="http://creativecommons.org/ns#"
   xmlns:rdf="http://www.w3.org/1999/02/22-rdf-syntax-ns#"
   xmlns:svg="http://www.w3.org/2000/svg"
   xmlns="http://www.w3.org/2000/svg"
   viewBox="0 0 1333.3333 1333.3333"
   height="1333.3333"
   width="1333.3333"
   xml:space="preserve"
   id="svg2"
   version="1.1"><metadata
     id="metadata8"><rdf:RDF><cc:Work
         rdf:about=""><dc:format>image/svg+xml</dc:format><dc:type
           rdf:resource="http://purl.org/dc/dcmitype/StillImage" /></cc:Work></rdf:RDF></metadata><defs
     id="defs6"><clipPath
       id="clipPath18"
       clipPathUnits="userSpaceOnUse"><path
         id="path16"
         d="M 0,1000 H 1000 V 0 H 0 Z" /></clipPath><clipPath
       id="clipPath126"
       clipPathUnits="userSpaceOnUse"><path
         id="path124"
         d="M 479.1,588.964 C 459.333,588.257 448.047,572.903 445.724,548.6 v 0 C 431.001,526.092 430.1,517.74 418.721,497.822 v 0 c -11.378,-19.917 -13.817,-49.926 -5.498,-72.56 v 0 c 8.319,-22.634 10.755,-28.777 16.809,-36.901 v 0 c 11.404,3.174 41.687,17.349 53.822,20.507 v 0 c 12.135,3.158 40.971,18.125 52.11,26.252 v 0 c 11.14,8.127 27.008,15.009 40.24,18.142 v 0 c 13.233,3.134 44.034,42.793 53.337,50.58 v 0 c 11.497,7.738 19.953,9.836 19.953,9.836 v 0 c 1.436,16.711 -2.515,20.223 -2.515,20.223 v 0 c -6.489,4.708 -30.062,14.741 -43.428,23.025 v 0 c -13.366,8.286 -42.119,15.387 -55.532,21.39 v 0 c -12.608,5.642 -44.945,10.71 -65.199,10.711 v 0 c -1.292,0 -2.534,-0.021 -3.72,-0.063" /></clipPath><clipPath
       id="clipPath138"
       clipPathUnits="userSpaceOnUse"><path
         id="path136"
         d="M 343.087,489.861 C 340.976,385.957 420.233,299.945 520.114,297.749 v 0 c 99.881,-2.196 182.561,80.255 184.672,184.159 v 0 c 2.112,103.905 -77.146,189.916 -177.027,192.113 v 0 c -1.298,0.028 -2.604,0.043 -3.897,0.043 v 0 c -98.13,0.005 -178.691,-81.649 -180.775,-184.203" /></clipPath><clipPath
       id="clipPath150"
       clipPathUnits="userSpaceOnUse"><path
         id="path148"
         d="M 0,1000 H 1000 V 0 H 0 Z" /></clipPath></defs><g
     transform="matrix(1.3333333,0,0,-1.3333333,0,1333.3333)"
     id="g10"><g
       id="g12"><g
         clip-path="url(#clipPath18)"
         id="g14"><g
           transform="translate(333.3314,490.0758)"
           id="g20"><path
             id="path22"
             style="fill:#878e91;fill-opacity:1;fill-rule:nonzero;stroke:none"
             d="m 0,0 c -2.225,-109.51 81.308,-200.161 186.576,-202.476 105.269,-2.315 192.41,84.584 194.635,194.094 2.225,109.509 -81.308,200.161 -186.577,202.475 C 89.366,196.408 2.225,109.51 0,0" /></g><g
           transform="translate(430.0569,300.4535)"
           id="g24"><path
             id="path26"
             style="fill:#ffffff;fill-opacity:1;fill-rule:nonzero;stroke:none"
             d="m 0,0 30.003,-13.292 -3.335,-7.575 -10.067,4.46 -10.173,-23.101 -9.871,4.373 10.173,23.101 -10.066,4.46 z" /></g><g
           transform="translate(474.3667,262.0983)"
           id="g28"><path
             id="path30"
             style="fill:#ffffff;fill-opacity:1;fill-rule:nonzero;stroke:none"
             d="M 0,0 -0.781,12.642 -7.431,1.899 Z m 0.392,-7.584 -11.869,3.034 -3.006,-4.945 -10.675,2.729 20.933,29.259 11.404,-2.915 4.498,-35.76 -10.948,2.798 z" /></g><g
           transform="translate(496.9088,278.3236)"
           id="g32"><path
             id="path34"
             style="fill:#ffffff;fill-opacity:1;fill-rule:nonzero;stroke:none"
             d="M 0,0 10.055,-0.569 22.183,-19.846 23.176,-1.31 33.325,-1.883 31.534,-35.387 21.383,-34.813 9.317,-15.68 8.334,-34.076 -1.793,-33.504 Z" /></g><g
           transform="translate(548.3116,270.902)"
           id="g36"><path
             id="path38"
             style="fill:#ffffff;fill-opacity:1;fill-rule:nonzero;stroke:none"
             d="m 0,0 2.651,-18.149 2.615,0.374 c 2.23,0.32 3.781,0.784 4.653,1.395 0.873,0.611 1.489,1.547 1.85,2.81 0.361,1.262 0.348,3.223 -0.041,5.881 -0.515,3.52 -1.463,5.843 -2.846,6.972 C 7.499,0.412 5.425,0.777 2.661,0.382 Z m -11.769,5.995 15.852,2.27 c 3.124,0.448 5.708,0.402 7.751,-0.139 2.043,-0.54 3.803,-1.483 5.283,-2.829 1.479,-1.345 2.649,-2.99 3.51,-4.933 0.861,-1.943 1.457,-4.048 1.788,-6.314 0.519,-3.55 0.501,-6.363 -0.054,-8.44 -0.554,-2.076 -1.481,-3.883 -2.779,-5.417 -1.298,-1.536 -2.772,-2.645 -4.419,-3.329 -2.252,-0.94 -4.327,-1.545 -6.227,-1.817 l -15.852,-2.27 z" /></g><g
           transform="translate(573.3878,283.3844)"
           id="g40"><path
             id="path42"
             style="fill:#ffffff;fill-opacity:1;fill-rule:nonzero;stroke:none"
             d="M 0,0 10.362,3.041 19.898,-29.16 9.537,-32.202 Z" /></g><g
           transform="translate(590.5632,288.4112)"
           id="g44"><path
             id="path46"
             style="fill:#ffffff;fill-opacity:1;fill-rule:nonzero;stroke:none"
             d="m 0,0 9.86,4.335 10.234,-23.16 15.389,6.766 3.344,-7.567 -25.251,-11.101 z" /></g><g
           transform="translate(329.7684,579.1315)"
           id="g48"><path
             id="path50"
             style="fill:#ffffff;fill-opacity:1;fill-rule:nonzero;stroke:none"
             d="M 0,0 5.23,6.531 C 7.045,5.148 8.409,3.621 9.323,1.95 c 0.914,-1.671 1.388,-3.458 1.424,-5.36 0.037,-1.903 -0.451,-4.092 -1.461,-6.566 -1.225,-3.003 -2.646,-5.272 -4.262,-6.809 -1.617,-1.537 -3.765,-2.536 -6.443,-2.995 -2.68,-0.46 -5.669,0.03 -8.969,1.469 -4.399,1.919 -7.285,4.608 -8.656,8.07 -1.371,3.461 -1.15,7.415 0.665,11.862 1.42,3.48 3.214,5.919 5.38,7.32 2.167,1.401 4.851,1.973 8.052,1.717 L -6.408,2.416 c -0.917,0.09 -1.623,0.072 -2.117,-0.054 -0.822,-0.203 -1.544,-0.576 -2.165,-1.119 -0.621,-0.544 -1.106,-1.242 -1.454,-2.096 -0.79,-1.935 -0.645,-3.744 0.433,-5.427 0.793,-1.264 2.38,-2.415 4.76,-3.452 2.947,-1.286 5.157,-1.702 6.63,-1.249 1.473,0.453 2.552,1.521 3.239,3.205 0.666,1.633 0.729,3.059 0.186,4.28 C 2.562,-2.275 1.528,-1.11 0,0" /></g><g
           transform="translate(320.6338,600.0577)"
           id="g52"><path
             id="path54"
             style="fill:#ffffff;fill-opacity:1;fill-rule:nonzero;stroke:none"
             d="M 0,0 4.598,7.957 23.348,-3.432 30.525,8.987 36.65,5.266 24.876,-15.111 Z" /></g><g
           transform="translate(347.6295,640.7901)"
           id="g56"><path
             id="path58"
             style="fill:#ffffff;fill-opacity:1;fill-rule:nonzero;stroke:none"
             d="M 0,0 5.629,7.206 19.131,-3.751 c 1.339,-1.086 2.435,-2.328 3.288,-3.723 0.854,-1.396 1.367,-2.915 1.539,-4.557 0.173,-1.643 0.045,-3.115 -0.384,-4.417 -0.591,-1.812 -1.655,-3.702 -3.191,-5.668 -0.888,-1.138 -1.935,-2.315 -3.14,-3.534 -1.205,-1.22 -2.389,-2.095 -3.553,-2.627 -1.164,-0.531 -2.461,-0.829 -3.891,-0.892 -1.43,-0.065 -2.701,0.129 -3.813,0.58 -1.791,0.723 -3.242,1.536 -4.354,2.439 l -13.502,10.957 5.629,7.206 13.824,-11.218 c 1.236,-1.003 2.477,-1.433 3.724,-1.29 1.248,0.142 2.361,0.841 3.341,2.096 0.971,1.242 1.391,2.496 1.258,3.758 -0.132,1.263 -0.826,2.404 -2.083,3.423 z" /></g><g
           transform="translate(381.9194,644.2203)"
           id="g60"><path
             id="path62"
             style="fill:#ffffff;fill-opacity:1;fill-rule:nonzero;stroke:none"
             d="M 0,0 3.409,3.181 C 4.559,4.255 5.185,5.216 5.286,6.066 5.387,6.914 5.123,7.683 4.497,8.373 3.916,9.012 3.214,9.309 2.394,9.261 1.573,9.214 0.577,8.645 -0.594,7.552 L -3.987,4.386 Z m -7.733,8.506 2.907,2.712 c 1.043,0.973 1.605,1.83 1.686,2.57 0.082,0.74 -0.186,1.45 -0.804,2.129 -0.573,0.63 -1.224,0.932 -1.954,0.905 -0.731,-0.026 -1.603,-0.512 -2.616,-1.457 l -2.95,-2.754 z m -14.461,2.198 12.511,11.676 c 2.085,1.945 4.156,2.923 6.213,2.93 2.055,0.009 3.777,-0.75 5.164,-2.276 1.164,-1.28 1.763,-2.749 1.799,-4.408 0.024,-1.106 -0.315,-2.314 -1.016,-3.623 1.895,1.076 3.622,1.502 5.183,1.275 1.56,-0.227 2.967,-1.03 4.22,-2.408 1.02,-1.122 1.678,-2.375 1.97,-3.756 C 14.143,8.731 14.074,7.357 13.644,5.99 13.378,5.143 12.747,4.117 11.751,2.914 10.425,1.313 9.516,0.283 9.024,-0.176 L -2.513,-10.943 Z" /></g><g
           transform="translate(409.739,686.3514)"
           id="g64"><path
             id="path66"
             style="fill:#ffffff;fill-opacity:1;fill-rule:nonzero;stroke:none"
             d="m 0,0 8.076,-13.828 1.927,1.134 c 1.643,0.967 2.706,1.837 3.189,2.608 0.483,0.772 0.657,1.724 0.523,2.859 -0.135,1.135 -0.793,2.716 -1.976,4.742 C 10.173,0.196 8.662,1.773 7.204,2.245 5.747,2.717 3.999,2.353 1.962,1.154 Z M -11.211,1.102 0.472,7.979 c 2.304,1.356 4.346,2.14 6.126,2.353 1.78,0.213 3.473,0.011 5.078,-0.607 1.605,-0.617 3.066,-1.574 4.383,-2.871 1.318,-1.297 2.48,-2.809 3.488,-4.535 1.579,-2.704 2.494,-4.984 2.746,-6.839 0.251,-1.855 0.121,-3.609 -0.391,-5.263 -0.511,-1.654 -1.299,-3.02 -2.366,-4.096 -1.456,-1.476 -2.884,-2.625 -4.284,-3.45 L 3.569,-24.205 Z" /></g><g
           transform="translate(429.1881,704.6082)"
           id="g68"><path
             id="path70"
             style="fill:#ffffff;fill-opacity:1;fill-rule:nonzero;stroke:none"
             d="m 0,0 22.69,9.12 2.355,-5.797 -14.205,-5.71 1.752,-4.315 13.177,5.297 2.249,-5.539 -13.177,-5.296 2.175,-5.353 14.615,5.875 2.497,-6.15 -23.101,-9.285 z" /></g><g
           transform="translate(485.998,709.3705)"
           id="g72"><path
             id="path74"
             style="fill:#ffffff;fill-opacity:1;fill-rule:nonzero;stroke:none"
             d="M 0,0 2.209,0.373 C 3.946,0.666 5.113,1.171 5.707,1.885 6.302,2.599 6.514,3.421 6.344,4.351 6.18,5.254 5.735,5.968 5.011,6.493 4.286,7.018 3.081,7.138 1.396,6.854 L -1.17,6.42 Z m -11.291,10.741 14.983,2.532 c 3.264,0.551 5.847,0.199 7.752,-1.058 1.904,-1.257 3.114,-3.299 3.629,-6.126 0.53,-2.906 0.059,-5.327 -1.414,-7.262 -1.473,-1.936 -4.026,-3.21 -7.661,-3.824 l -4.935,-0.834 1.948,-10.681 -9.054,-1.53 z" /></g><g
           transform="translate(507.333,724.8788)"
           id="g76"><path
             id="path78"
             style="fill:#ffffff;fill-opacity:1;fill-rule:nonzero;stroke:none"
             d="m 0,0 9.16,0.218 0.92,-21.985 14.296,0.34 0.301,-7.182 -23.455,-0.559 z" /></g><g
           transform="translate(552.6043,705.1131)"
           id="g80"><path
             id="path82"
             style="fill:#ffffff;fill-opacity:1;fill-rule:nonzero;stroke:none"
             d="M 0,0 -2.165,10.82 -6.478,0.823 Z m 1.235,-6.5 -10.349,1.314 -1.94,-4.596 -9.308,1.182 14.122,27.541 9.945,-1.263 8.052,-30.357 -9.546,1.213 z" /></g><g
           transform="translate(573.8683,719.8265)"
           id="g84"><path
             id="path86"
             style="fill:#ffffff;fill-opacity:1;fill-rule:nonzero;stroke:none"
             d="m 0,0 8.25,-2.48 6.517,-18.705 4.248,15.47 8.328,-2.503 -7.68,-27.962 -8.327,2.502 -6.491,18.571 -4.216,-15.352 -8.308,2.496 z" /></g><g
           transform="translate(610.1448,707.9503)"
           id="g88"><path
             id="path90"
             style="fill:#ffffff;fill-opacity:1;fill-rule:nonzero;stroke:none"
             d="m 0,0 22.353,-10.777 -2.547,-5.617 -13.994,6.746 -1.897,-4.181 12.981,-6.258 -2.433,-5.366 -12.982,6.259 -2.352,-5.187 14.399,-6.942 -2.702,-5.958 -22.759,10.972 z" /></g><g
           transform="translate(644.0759,668.4869)"
           id="g92"><path
             id="path94"
             style="fill:#ffffff;fill-opacity:1;fill-rule:nonzero;stroke:none"
             d="M 0,0 2.945,10.529 -5.443,3.738 Z m -1.829,-6.295 -8.695,5.972 -3.817,-3.143 -7.819,5.37 25.117,17.667 8.355,-5.737 -6.488,-30.461 -8.021,5.508 z" /></g><g
           transform="translate(672.0775,660.3364)"
           id="g96"><path
             id="path98"
             style="fill:#ffffff;fill-opacity:1;fill-rule:nonzero;stroke:none"
             d="m 0,0 -10.604,-11.556 1.658,-1.569 c 1.413,-1.34 2.558,-2.141 3.433,-2.404 0.876,-0.263 1.829,-0.178 2.86,0.257 1.031,0.435 2.323,1.498 3.877,3.19 2.056,2.242 3.085,4.134 3.088,5.678 0.002,1.544 -0.873,3.146 -2.625,4.805 z M -2.37,11.198 7.68,1.677 c 1.981,-1.877 3.343,-3.652 4.086,-5.327 0.743,-1.675 1.067,-3.375 0.972,-5.101 -0.095,-1.725 -0.555,-3.402 -1.379,-5.031 -0.823,-1.628 -1.898,-3.164 -3.222,-4.606 -2.074,-2.261 -3.948,-3.761 -5.624,-4.502 -1.675,-0.74 -3.372,-1.084 -5.09,-1.029 -1.718,0.054 -3.247,0.456 -4.588,1.205 -1.837,1.021 -3.358,2.102 -4.562,3.242 l -10.05,9.521 z" /></g><g
           transform="translate(689.1943,630.7452)"
           id="g100"><path
             id="path102"
             style="fill:#ffffff;fill-opacity:1;fill-rule:nonzero;stroke:none"
             d="m 0,0 c -2.28,-1.779 -3.573,-3.508 -3.88,-5.185 -0.306,-1.678 0.133,-3.291 1.319,-4.84 1.22,-1.593 2.651,-2.445 4.295,-2.557 1.644,-0.111 3.729,0.819 6.255,2.791 2.125,1.659 3.33,3.327 3.612,5.003 0.283,1.676 -0.172,3.295 -1.367,4.855 C 9.09,1.561 7.673,2.373 5.984,2.501 4.293,2.63 2.299,1.796 0,0 m -5.646,7.437 c 3.686,2.878 7.391,4.027 11.115,3.448 3.725,-0.579 7.079,-2.816 10.06,-6.711 3.058,-3.993 4.404,-7.857 4.041,-11.593 -0.363,-3.735 -2.363,-7.021 -5.998,-9.858 -2.638,-2.06 -5.163,-3.277 -7.575,-3.652 -2.412,-0.374 -4.769,-0.036 -7.075,1.014 -2.306,1.05 -4.478,2.907 -6.516,5.569 -2.071,2.706 -3.381,5.261 -3.927,7.668 -0.546,2.406 -0.363,4.845 0.549,7.317 0.912,2.473 2.687,4.739 5.326,6.798" /></g><g
           transform="translate(712.7837,600.9111)"
           id="g104"><path
             id="path106"
             style="fill:#ffffff;fill-opacity:1;fill-rule:nonzero;stroke:none"
             d="m 0,0 1.882,-3.461 c 0.204,-0.375 0.712,-1.038 1.525,-1.988 0.399,-0.488 0.903,-0.788 1.513,-0.902 0.609,-0.114 1.189,-0.02 1.737,0.279 0.811,0.443 1.285,1.055 1.423,1.836 0.139,0.781 -0.2,1.921 -1.014,3.418 L 5.105,2.789 Z M -19.422,0.085 5.691,13.805 13.132,0.122 c 1.38,-2.537 2.228,-4.589 2.546,-6.155 0.319,-1.565 0.145,-3.062 -0.522,-4.493 -0.667,-1.43 -1.8,-2.582 -3.399,-3.455 -1.393,-0.761 -2.766,-1.103 -4.118,-1.027 -1.352,0.076 -2.642,0.494 -3.868,1.25 -0.782,0.483 -1.635,1.263 -2.562,2.341 0.223,-1.147 0.302,-2.028 0.236,-2.643 -0.041,-0.415 -0.244,-1.092 -0.606,-2.034 -0.363,-0.943 -0.674,-1.61 -0.935,-2.003 l -5.114,-7.951 -5.045,9.276 5.288,8.581 c 0.691,1.099 1.067,1.947 1.128,2.544 0.066,0.804 -0.105,1.581 -0.512,2.33 l -0.394,0.725 -10.193,-5.569 z" /></g><g
           transform="translate(734.9949,582.7482)"
           id="g108"><path
             id="path110"
             style="fill:#ffffff;fill-opacity:1;fill-rule:nonzero;stroke:none"
             d="m 0,0 8.717,-23.472 -5.739,-2.099 -5.457,14.694 -4.272,-1.563 5.062,-13.631 -5.482,-2.004 -5.063,13.63 -5.301,-1.938 5.617,-15.12 -6.088,-2.226 -8.876,23.898 z" /></g><g
           transform="translate(726.9922,548.6248)"
           id="g112"><path
             id="path114"
             style="fill:#ffffff;fill-opacity:1;fill-rule:nonzero;stroke:none"
             d="m 0,0 2.451,-8.557 c -1.296,-0.47 -2.232,-1.068 -2.803,-1.793 -0.926,-1.178 -1.193,-2.638 -0.805,-4.381 0.29,-1.3 0.804,-2.241 1.541,-2.822 0.737,-0.582 1.489,-0.791 2.254,-0.629 0.726,0.153 1.302,0.626 1.726,1.417 0.423,0.792 0.619,2.461 0.584,5.009 -0.038,4.175 0.461,7.264 1.496,9.265 1.032,2.016 2.645,3.255 4.838,3.719 1.44,0.304 2.899,0.153 4.377,-0.454 1.478,-0.607 2.779,-1.714 3.906,-3.323 1.126,-1.607 2.033,-3.946 2.718,-7.015 0.841,-3.767 0.816,-6.78 -0.075,-9.039 -0.891,-2.259 -2.748,-3.883 -5.571,-4.874 l -2.395,8.486 c 1.211,0.494 2.023,1.167 2.433,2.019 0.411,0.852 0.472,1.921 0.185,3.209 -0.237,1.058 -0.628,1.81 -1.175,2.257 -0.547,0.446 -1.126,0.604 -1.738,0.475 -0.446,-0.095 -0.798,-0.401 -1.056,-0.919 -0.276,-0.507 -0.392,-1.599 -0.351,-3.275 0.073,-4.154 -0.117,-7.18 -0.567,-9.079 -0.45,-1.899 -1.207,-3.372 -2.268,-4.417 -1.062,-1.046 -2.357,-1.731 -3.887,-2.054 -1.798,-0.38 -3.572,-0.208 -5.323,0.517 -1.751,0.725 -3.228,1.943 -4.43,3.653 -1.203,1.712 -2.124,3.995 -2.761,6.85 -1.12,5.013 -0.977,8.679 0.428,10.998 C -4.862,-2.439 -2.773,-0.853 0,0" /></g><g
           transform="translate(649.4937,513.6773)"
           id="g116"><path
             id="path118"
             style="fill:#606060;fill-opacity:1;fill-rule:nonzero;stroke:none"
             d="m 0,0 c 1.437,16.712 -2.515,20.223 -2.515,20.223 -6.489,4.709 -30.062,14.741 -43.428,23.026 -13.366,8.285 -42.119,15.387 -55.532,21.389 -13.412,6.003 -49.151,11.356 -68.918,10.649 -19.768,-0.707 -31.054,-16.061 -33.376,-40.364 -14.724,-22.508 -15.625,-30.86 -27.003,-50.778 -11.379,-19.918 -13.818,-49.926 -5.498,-72.561 8.319,-22.634 10.754,-28.776 16.808,-36.9 11.404,3.174 41.687,17.349 53.822,20.507 12.136,3.158 40.972,18.125 52.111,26.252 11.139,8.127 27.008,15.008 40.24,18.142 13.232,3.134 44.033,42.793 53.336,50.579 C -8.456,-2.097 0,0 0,0" /></g></g></g><g
       id="g120"><g
         clip-path="url(#clipPath126)"
         id="g122"><g
           transform="translate(653.9276,515.863)"
           id="g128"><path
             id="path130"
             style="fill:#606060;fill-opacity:1;fill-rule:nonzero;stroke:none"
             d="m 0,0 -39.251,-14.472 c 0,0 -83.918,-52.457 -95.835,-62.85 -11.917,-10.393 -69.277,-42.999 -88.81,-50.18 -7.274,-2.674 17.768,-24.935 17.768,-24.935 l 159.656,25.6 74.826,82.072 z" /></g></g></g><g
       id="g132"><g
         clip-path="url(#clipPath138)"
         id="g134"><g
           transform="translate(788.0903,457.7358)"
           id="g140"><path
             id="path142"
             style="fill:#606060;fill-opacity:1;fill-rule:nonzero;stroke:none"
             d="m 0,0 c 0,0 -73.922,-1.576 -104.642,-1.202 -30.719,0.373 -69.053,-14.005 -101.734,-20.136 -32.68,-6.131 -57.348,-9.658 -81.995,-18.688 -24.648,-9.029 -60.301,-52.742 -70.246,-65.474 -1.698,5.72 -18.463,35.021 -24.041,40.091 -5.578,5.07 -15.741,4.532 -30.862,0.679 -15.121,-3.854 -23.242,-7.48 -26.703,-15.776 -3.461,-8.296 -14.069,-26.328 -14.069,-26.328 l -56.814,-87.052 495.43,-10.894 z" /></g></g></g><g
       id="g144"><g
         clip-path="url(#clipPath150)"
         id="g146"><g
           transform="translate(504.7477,459.1102)"
           id="g152"><path
             id="path154"
             style="fill:#f9f9f9;fill-opacity:1;fill-rule:nonzero;stroke:none"
             d="m 0,0 c -1.698,8.305 -13.718,21.35 -26.102,16.51 6.549,9.129 13.56,14.304 17.555,17.506 C 0.603,41.351 6.842,35.595 7.758,20.239 6.403,13.889 5.051,7.539 0,0 m -22.674,-26.379 c -6.113,1.412 -18.341,4.237 -23.305,1.79 2.062,10.818 8.521,24.891 16.089,36.07 5.928,3.522 23.358,0.765 26.695,-15.598 -6.023,-8.805 -16.213,-23.475 -19.479,-22.262 m 442.745,53.527 c -15.026,0.33 -297.417,-8.744 -399.17,-8.304 10.497,19.723 32.539,52.171 34.637,55.299 2.534,3.778 3.684,-0.081 5.041,6.279 1.306,3.806 6.348,10.085 6.348,10.085 l 1.194,58.763 c 0,0 44.311,4.138 60.301,5.064 15.99,0.927 14.891,7.341 14.891,7.341 0,0 -149.787,4.571 -162.041,6.119 -12.358,-3.562 -2.638,-8.888 -2.638,-8.888 L 50.955,150.925 47.15,84.552 c 0,0 -5.042,-6.28 -15.074,-16.283 -9.217,-9.192 -41.815,-29.12 -57.511,-47.503 -112.35,9.115 -384.252,50.308 -397.573,51.758 -14.709,1.602 -24.199,0.247 -24.997,-2.999 17.82,-2.495 290.646,-56.294 409.748,-68.991 -10.419,-20.789 -14.94,-43.427 -8.345,-55.782 6.957,0.57 13.332,2.652 19.135,5.755 5.189,-1.683 9.365,2.256 10.238,6.931 13.69,11.288 23.261,27.76 28.828,39.928 107.939,-2.357 306.957,13.906 421.876,24.375 0,0 2.559,5.056 -13.404,5.407" /></g></g></g></g></svg>